<?xml version="1.0" encoding="utf-8"?>
<!-- Generator: Adobe Illustrator 23.0.3, SVG Export Plug-In . SVG Version: 6.00 Build 0)  -->
<svg fill="currentColor" version="1.1" id="Layer_1" xmlns="http://www.w3.org/2000/svg" xmlns:xlink="http://www.w3.org/1999/xlink" x="0px" y="0px"
	 viewBox="0 0 512 512" style="enable-background:new 0 0 512 512;" xml:space="preserve">
<style type="text/css">
	.st0{fill:#005891;}
	.st1{fill:#EB1D39;}
</style>
<title>pdf-outline</title>
<path d="M307.3,0H115.2c-35.3,0-64,28.7-64,64v384c0,35.3,28.7,64,64,64h281.6c35.3,0,64-28.7,64-64V153.6L307.3,0z
	 M411.5,140.8h-53.1c-21.2,0-38.4-17.2-38.4-38.4V49.1L411.5,140.8z M435.2,448c0,21.2-17.2,38.4-38.4,38.4H115.2
	c-21.2,0-38.4-17.2-38.4-38.4V64c0-21.2,17.2-38.4,38.4-38.4h179.2v76.8c0,35.3,28.7,64,64,64h76.8V448z"/>
<path class="st1" d="M345.5,363.6c-0.3-3.2-3.4-19.3-30.7-18.5c-19.3,0.5-28.1,1.5-31.5,2.1c-4.1-4.4-18.4-20.2-24.6-33.1
	c1.7-5.4,8.4-27.4,8.1-42.2c-0.3-13.4-2.8-28.6-19.3-28.6h-0.3c-4.8,0.1-8.6,1.6-11.3,4.6c-4.3,4.8-5.5,12.6-4.2,26.3
	c1.3,13,7,27.7,8.6,31.7c-1.3,4.1-6.4,19.5-12.7,34.7c-5.9,14.3-10.4,23.1-11.9,26c-5.2,1.9-26.1,9.8-36.2,19.4
	c-9.4,9-17.9,19.6-10,30.6c2.6,3.7,7.6,5.9,13.2,5.9h0.2c10.1,0,20.9-6.7,29.6-18.3c13.1-17.6,20.1-29.5,22.2-33.2
	c5-1.4,23.5-6.6,29.8-8.1c5.4-1.3,11.7-2.5,14.5-3c4.9,4.8,24.4,22,43.8,21.4c9-0.3,15.5-2.7,19.3-7.1
	C344.7,371.1,345.9,367.4,345.5,363.6L345.5,363.6z M183,408.9c-1.3,0.5-2.7,0.3-3.9-0.4l0,0c-1.1-0.7-1.2-1.2-1-2.1
	c1.4-6.5,17.2-17.4,27.1-22.6C199.5,393.5,190.3,406.8,183,408.9z M246.6,254.3c1.1,0,3.7,0,3.8,9.8c0.1,6.5-2.5,17.2-4.5,24.4
	c-2.2-6.7-3.4-13.7-3.5-20.8C242.4,257.9,245,254.3,246.6,254.3L246.6,254.3z M255.4,353.3c-5.4,1.4-9.7,2.7-13,3.9l2.3-5.3
	c3.3-7.6,6.6-16.8,8.7-22.8c4.7,7.4,9.9,14.4,15.5,21.1C265.9,350.9,261.4,351.9,255.4,353.3L255.4,353.3z M324.1,366.9
	c-5.8,2.4-18.6-1.3-29.5-9.6c11.4-1.5,26.1-1.9,30.9,2.1c0.9,0.7,1.4,1.7,1.4,2.8C326.9,364.6,326,366.1,324.1,366.9z"/>
</svg>
